<svg xmlns="http://www.w3.org/2000/svg" width="805" height="600"><rect width="805" height="600" x="0" y="0" fill="#FFFFFF" id="background"/><g transform="translate(20,20)" id="viz"><g id="nodes"><g transform="translate(383.5,281)"><path id="p_943.5" d="M-5.143516556418883e-14,280A280,280,0,1,1,5.143516556418883e-14,-280A280,280,0,1,1,-5.143516556418883e-14,280Z" fill="none" stroke="#ccc"/></g><g transform="translate(360.62946692471974,269.8272971672874)" id="Paris"><path id="p_722.513020003665" d="M-1.7094156891427315e-14,93.05625591165787A93.05625591165787,93.05625591165787,0,1,1,1.7094156891427315e-14,-93.05625591165787A93.05625591165787,93.05625591165787,0,1,1,-1.7094156891427315e-14,93.05625591165787Z" fill="#1f77b4" stroke="none"/></g><g transform="translate(487.5193230228063,269.8272971672874)" id="Nice"><path id="p_788.2646526451108" d="M-5.8632474421677034e-15,31.918032455017098A31.918032455017098,31.918032455017098,0,1,1,5.8632474421677034e-15,-31.918032455017098A31.918032455017098,31.918032455017098,0,1,1,-5.8632474421677034e-15,31.918032455017098Z" fill="#1f77b4" stroke="none"/></g><g transform="translate(470.48377216019946,333.333731501323)" id="Casablanca"><path id="p_834.7355361165395" d="M-5.8632474421677034e-15,31.918032455017098A31.918032455017098,31.918032455017098,0,1,1,5.8632474421677034e-15,-31.918032455017098A31.918032455017098,31.918032455017098,0,1,1,-5.8632474421677034e-15,31.918032455017098Z" fill="#1f77b4" stroke="none"/></g><g transform="translate(470.48377216019946,206.32086283325185)" id="Bordeaux"><path id="p_707.7226674484684" d="M-5.8632474421677034e-15,31.918032455017098A31.918032455017098,31.918032455017098,0,1,1,5.8632474421677034e-15,-31.918032455017098A31.918032455017098,31.918032455017098,0,1,1,-5.8632474421677034e-15,31.918032455017098Z" fill="#1f77b4" stroke="none"/></g><g transform="translate(423.95132277689873,159.8664943690676)" id="Billericay"><path id="p_614.7358496009833" d="M-5.8632474421677034e-15,31.918032455017098A31.918032455017098,31.918032455017098,0,1,1,5.8632474421677034e-15,-31.918032455017098A31.918032455017098,31.918032455017098,0,1,1,-5.8632474421677034e-15,31.918032455017098Z" fill="#1f77b4" stroke="none"/></g><g transform="translate(423.95132277689873,379.7880999655072)" id="Trappes"><path id="p_834.6574551974229" d="M-5.8632474421677034e-15,31.918032455017098A31.918032455017098,31.918032455017098,0,1,1,5.8632474421677034e-15,-31.918032455017098A31.918032455017098,31.918032455017098,0,1,1,-5.8632474421677034e-15,31.918032455017098Z" fill="#1f77b4" stroke="none"/></g><g transform="translate(360.41636855584966,142.9376200076449)" id="Nancy"><path id="p_534.2720210185116" d="M-5.8632474421677034e-15,31.918032455017098A31.918032455017098,31.918032455017098,0,1,1,5.8632474421677034e-15,-31.918032455017098A31.918032455017098,31.918032455017098,0,1,1,-5.8632474421677034e-15,31.918032455017098Z" fill="#1f77b4" stroke="none"/></g><g transform="translate(360.41636855584966,396.7169743269299)" id="Joué-lès-Tours"><path id="p_788.0513753377966" d="M-5.8632474421677034e-15,31.918032455017098A31.918032455017098,31.918032455017098,0,1,1,5.8632474421677034e-15,-31.918032455017098A31.918032455017098,31.918032455017098,0,1,1,-5.8632474421677034e-15,31.918032455017098Z" fill="#1f77b4" stroke="none"/></g><g transform="translate(533.999733028546,223.32086018579017)" id="Valga"><path id="p_788.2386256693532" d="M-5.8632474421677034e-15,31.918032455017098A31.918032455017098,31.918032455017098,0,1,1,5.8632474421677034e-15,-31.918032455017098A31.918032455017098,31.918032455017098,0,1,1,-5.8632474421677034e-15,31.918032455017098Z" fill="#1f77b4" stroke="none"/></g><g transform="translate(523.2676251668497,313.45485468943315)" id="Lille"><path id="p_858.2919370473578" d="M-4.1459420261314625e-15,22.569457191074896A22.569457191074896,22.569457191074896,0,1,1,4.1459420261314625e-15,-22.569457191074896A22.569457191074896,22.569457191074896,0,1,1,-4.1459420261314625e-15,22.569457191074896Z" fill="#1f77b4" stroke="none"/></g><g transform="translate(308.32452475774085,375.0895683048616)" id="Uzeste"><path id="p_704.9835502536773" d="M-4.1459420261314625e-15,22.569457191074896A22.569457191074896,22.569457191074896,0,1,1,4.1459420261314625e-15,-22.569457191074896A22.569457191074896,22.569457191074896,0,1,1,-4.1459420261314625e-15,22.569457191074896Z" fill="#1f77b4" stroke="none"/></g><g transform="translate(308.32452475774085,164.5650260297132)" id="14th arrondissement of Paris"><path id="p_494.4590079785289" d="M-4.1459420261314625e-15,22.569457191074896A22.569457191074896,22.569457191074896,0,1,1,4.1459420261314625e-15,-22.569457191074896A22.569457191074896,22.569457191074896,0,1,1,-4.1459420261314625e-15,22.569457191074896Z" fill="#1f77b4" stroke="none"/></g><g transform="translate(479.59777318446913,150.65902791147107)" id="12th arrondissement of Paris"><path id="p_651.8262582870151" d="M-4.1459420261314625e-15,22.569457191074896A22.569457191074896,22.569457191074896,0,1,1,4.1459420261314625e-15,-22.569457191074896A22.569457191074896,22.569457191074896,0,1,1,-4.1459420261314625e-15,22.569457191074896Z" fill="#1f77b4" stroke="none"/></g><g transform="translate(479.59777318446913,388.9955664231037)" id="9th arrondissement of Paris"><path id="p_890.1627967986477" d="M-4.1459420261314625e-15,22.569457191074896A22.569457191074896,22.569457191074896,0,1,1,4.1459420261314625e-15,-22.569457191074896A22.569457191074896,22.569457191074896,0,1,1,-4.1459420261314625e-15,22.569457191074896Z" fill="#1f77b4" stroke="none"/></g><g transform="translate(271.2295384482969,346.13984848449655)" id="Narbonne"><path id="p_638.9388441238684" d="M-4.1459420261314625e-15,22.569457191074896A22.569457191074896,22.569457191074896,0,1,1,4.1459420261314625e-15,-22.569457191074896A22.569457191074896,22.569457191074896,0,1,1,-4.1459420261314625e-15,22.569457191074896Z" fill="#1f77b4" stroke="none"/></g><g transform="translate(271.2295384482969,193.51474585007824)" id="London"><path id="p_486.3137414894501" d="M-4.1459420261314625e-15,22.569457191074896A22.569457191074896,22.569457191074896,0,1,1,4.1459420261314625e-15,-22.569457191074896A22.569457191074896,22.569457191074896,0,1,1,-4.1459420261314625e-15,22.569457191074896Z" fill="#1f77b4" stroke="none"/></g><g transform="translate(552.5187163880362,276.59704751991615)" id="Calais"><path id="p_850.6852210990272" d="M-4.1459420261314625e-15,22.569457191074896A22.569457191074896,22.569457191074896,0,1,1,4.1459420261314625e-15,-22.569457191074896A22.569457191074896,22.569457191074896,0,1,1,-4.1459420261314625e-15,22.569457191074896Z" fill="#1f77b4" stroke="none"/></g><g transform="translate(403.9838289846695,432.53849402268224)" id="Democratic Republic of the Congo"><path id="p_858.0917801984267" d="M-4.1459420261314625e-15,22.569457191074896A22.569457191074896,22.569457191074896,0,1,1,4.1459420261314625e-15,-22.569457191074896A22.569457191074896,22.569457191074896,0,1,1,-4.1459420261314625e-15,22.569457191074896Z" fill="#1f77b4" stroke="none"/></g><g transform="translate(403.9838289846695,107.11610031189258)" id="Jakarta"><path id="p_532.669386487637" d="M-4.1459420261314625e-15,22.569457191074896A22.569457191074896,22.569457191074896,0,1,1,4.1459420261314625e-15,-22.569457191074896A22.569457191074896,22.569457191074896,0,1,1,-4.1459420261314625e-15,22.569457191074896Z" fill="#1f77b4" stroke="none"/></g><g transform="translate(519.9717442283035,360.3937666475772)" id="Warsaw"><path id="p_901.9349680669555" d="M-4.1459420261314625e-15,22.569457191074896A22.569457191074896,22.569457191074896,0,1,1,4.1459420261314625e-15,-22.569457191074896A22.569457191074896,22.569457191074896,0,1,1,-4.1459420261314625e-15,22.569457191074896Z" fill="#1f77b4" stroke="none"/></g><g transform="translate(248.4616533666705,304.9603912772273)" id="Sedan"><path id="p_574.9915018349727" d="M-4.1459420261314625e-15,22.569457191074896A22.569457191074896,22.569457191074896,0,1,1,4.1459420261314625e-15,-22.569457191074896A22.569457191074896,22.569457191074896,0,1,1,-4.1459420261314625e-15,22.569457191074896Z" fill="#1f77b4" stroke="none"/></g><g transform="translate(248.4616533666705,234.69420305734747)" id="Grasse"><path id="p_504.7253136150929" d="M-4.1459420261314625e-15,22.569457191074896A22.569457191074896,22.569457191074896,0,1,1,4.1459420261314625e-15,-22.569457191074896A22.569457191074896,22.569457191074896,0,1,1,-4.1459420261314625e-15,22.569457191074896Z" fill="#1f77b4" stroke="none"/></g><g transform="translate(523.3685393038445,167.92877951068078)" id="Marquette-lez-Lille"><path id="p_712.8667760056002" d="M-4.1459420261314625e-15,22.569457191074896A22.569457191074896,22.569457191074896,0,1,1,4.1459420261314625e-15,-22.569457191074896A22.569457191074896,22.569457191074896,0,1,1,-4.1459420261314625e-15,22.569457191074896Z" fill="#1f77b4" stroke="none"/></g><g transform="translate(217.16005619915248,269.8272971672874)" id="Argentina"><path id="p_508.5568105575147" d="M-4.1459420261314625e-15,22.569457191074896A22.569457191074896,22.569457191074896,0,1,1,4.1459420261314625e-15,-22.569457191074896A22.569457191074896,22.569457191074896,0,1,1,-4.1459420261314625e-15,22.569457191074896Z" fill="#1f77b4" stroke="none"/></g><g transform="translate(522.9225014008507,407.3556375545601)" id="Toulouse"><path id="p_951.8475961464857" d="M-4.1459420261314625e-15,22.569457191074896A22.569457191074896,22.569457191074896,0,1,1,4.1459420261314625e-15,-22.569457191074896A22.569457191074896,22.569457191074896,0,1,1,-4.1459420261314625e-15,22.569457191074896Z" fill="#1f77b4" stroke="none"/></g><g transform="translate(310.05384053665085,422.1122623356408)" id="Tacuarembó Department"><path id="p_753.7355600633666" d="M-4.1459420261314625e-15,22.569457191074896A22.569457191074896,22.569457191074896,0,1,1,4.1459420261314625e-15,-22.569457191074896A22.569457191074896,22.569457191074896,0,1,1,-4.1459420261314625e-15,22.569457191074896Z" fill="#1f77b4" stroke="none"/></g><g transform="translate(310.05384053665085,117.542331998934)" id="Saint-Mandé"><path id="p_449.16562972665974" d="M-4.1459420261314625e-15,22.569457191074896A22.569457191074896,22.569457191074896,0,1,1,4.1459420261314625e-15,-22.569457191074896A22.569457191074896,22.569457191074896,0,1,1,-4.1459420261314625e-15,22.569457191074896Z" fill="#1f77b4" stroke="none"/></g><g transform="translate(453.2521712315466,111.67142033273356)" id="Hradec Králové"><path id="p_586.4930487553551" d="M-4.1459420261314625e-15,22.569457191074896A22.569457191074896,22.569457191074896,0,1,1,4.1459420261314625e-15,-22.569457191074896A22.569457191074896,22.569457191074896,0,1,1,-4.1459420261314625e-15,22.569457191074896Z" fill="#1f77b4" stroke="none"/></g><g transform="translate(453.2521712315466,427.98317400184123)" id="Ouidah"><path id="p_902.8048024244627" d="M-4.1459420261314625e-15,22.569457191074896A22.569457191074896,22.569457191074896,0,1,1,4.1459420261314625e-15,-22.569457191074896A22.569457191074896,22.569457191074896,0,1,1,-4.1459420261314625e-15,22.569457191074896Z" fill="#1f77b4" stroke="none"/></g><g transform="translate(264.70583880614095,392.73990889169346)" id="Frederiksberg"><path id="p_679.0152048889092" d="M-4.1459420261314625e-15,22.569457191074896A22.569457191074896,22.569457191074896,0,1,1,4.1459420261314625e-15,-22.569457191074896A22.569457191074896,22.569457191074896,0,1,1,-4.1459420261314625e-15,22.569457191074896Z" fill="#1f77b4" stroke="none"/></g><g transform="translate(264.70583880614095,146.91468544288134)" id="Turin"><path id="p_433.1899814400972" d="M-4.1459420261314625e-15,22.569457191074896A22.569457191074896,22.569457191074896,0,1,1,4.1459420261314625e-15,-22.569457191074896A22.569457191074896,22.569457191074896,0,1,1,-4.1459420261314625e-15,22.569457191074896Z" fill="#1f77b4" stroke="none"/></g><g transform="translate(432.30307668931493,69.53758921288278)" id="Rouen"><path id="p_523.4101230932727" d="M-4.1459420261314625e-15,22.569457191074896A22.569457191074896,22.569457191074896,0,1,1,4.1459420261314625e-15,-22.569457191074896A22.569457191074896,22.569457191074896,0,1,1,-4.1459420261314625e-15,22.569457191074896Z" fill="#1f77b4" stroke="none"/></g><g transform="translate(432.30307668931493,470.11700512169205)" id="Afaahiti"><path id="p_923.9895390020819" d="M-4.1459420261314625e-15,22.569457191074896A22.569457191074896,22.569457191074896,0,1,1,4.1459420261314625e-15,-22.569457191074896A22.569457191074896,22.569457191074896,0,1,1,-4.1459420261314625e-15,22.569457191074896Z" fill="#1f77b4" stroke="none"/></g><g transform="translate(562.2699748793304,339.77862728913516)" id="13th arrondissement of Paris"><path id="p_923.6180593595404" d="M-4.1459420261314625e-15,22.569457191074896A22.569457191074896,22.569457191074896,0,1,1,4.1459420261314625e-15,-22.569457191074896A22.569457191074896,22.569457191074896,0,1,1,-4.1459420261314625e-15,22.569457191074896Z" fill="#1f77b4" stroke="none"/></g><g transform="translate(224.18313985193436,345.2676867519952)" id="Montpellier"><path id="p_591.0202837950044" d="M-4.1459420261314625e-15,22.569457191074896A22.569457191074896,22.569457191074896,0,1,1,4.1459420261314625e-15,-22.569457191074896A22.569457191074896,22.569457191074896,0,1,1,-4.1459420261314625e-15,22.569457191074896Z" fill="#1f77b4" stroke="none"/></g><g transform="translate(224.18313985193436,194.38690758257962)" id="Lisbon"><path id="p_440.13950462558887" d="M-4.1459420261314625e-15,22.569457191074896A22.569457191074896,22.569457191074896,0,1,1,4.1459420261314625e-15,-22.569457191074896A22.569457191074896,22.569457191074896,0,1,1,-4.1459420261314625e-15,22.569457191074896Z" fill="#1f77b4" stroke="none"/></g><g transform="translate(591.5210661005169,302.92082011961816)" id="Enghien-les-Bains"><path id="p_916.01134341121" d="M-4.1459420261314625e-15,22.569457191074896A22.569457191074896,22.569457191074896,0,1,1,4.1459420261314625e-15,-22.569457191074896A22.569457191074896,22.569457191074896,0,1,1,-4.1459420261314625e-15,22.569457191074896Z" fill="#1f77b4" stroke="none"/></g><g transform="translate(361.6625441773332,86.54833088417416)" id="Courbevoie"><path id="p_469.78033225258224" d="M-4.1459420261314625e-15,22.569457191074896A22.569457191074896,22.569457191074896,0,1,1,4.1459420261314625e-15,-22.569457191074896A22.569457191074896,22.569457191074896,0,1,1,-4.1459420261314625e-15,22.569457191074896Z" fill="#1f77b4" stroke="none"/></g><g transform="translate(361.6625441773332,453.10626345040066)" id="Grenoble"><path id="p_836.3382648188087" d="M-4.1459420261314625e-15,22.569457191074896A22.569457191074896,22.569457191074896,0,1,1,4.1459420261314625e-15,-22.569457191074896A22.569457191074896,22.569457191074896,0,1,1,-4.1459420261314625e-15,22.569457191074896Z" fill="#1f77b4" stroke="none"/></g><g transform="translate(586.4688516738639,244.01618502290023)" id="Kananga"><path id="p_852.054493887839" d="M-4.1459420261314625e-15,22.569457191074896A22.569457191074896,22.569457191074896,0,1,1,4.1459420261314625e-15,-22.569457191074896A22.569457191074896,22.569457191074896,0,1,1,-4.1459420261314625e-15,22.569457191074896Z" fill="#1f77b4" stroke="none"/></g><g transform="translate(266.4351545850509,439.7626029224727)" id="Algiers"><path id="p_727.7672146985985" d="M-4.1459420261314625e-15,22.569457191074896A22.569457191074896,22.569457191074896,0,1,1,4.1459420261314625e-15,-22.569457191074896A22.569457191074896,22.569457191074896,0,1,1,-4.1459420261314625e-15,22.569457191074896Z" fill="#1f77b4" stroke="none"/></g><g transform="translate(266.4351545850509,99.89199141210213)" id="Marseille"><path id="p_387.8966031882279" d="M-4.1459420261314625e-15,22.569457191074896A22.569457191074896,22.569457191074896,0,1,1,4.1459420261314625e-15,-22.569457191074896A22.569457191074896,22.569457191074896,0,1,1,-4.1459420261314625e-15,22.569457191074896Z" fill="#1f77b4" stroke="none"/></g><g transform="translate(516.4391998461194,121.38730830858964)" id="Six-Fours-les-Plages"><path id="p_659.3959653457839" d="M-4.1459420261314625e-15,22.569457191074896A22.569457191074896,22.569457191074896,0,1,1,4.1459420261314625e-15,-22.569457191074896A22.569457191074896,22.569457191074896,0,1,1,-4.1459420261314625e-15,22.569457191074896Z" fill="#1f77b4" stroke="none"/></g><g transform="translate(317.23735134311306,468.61518116305325)" id="Miami"><path id="p_807.4219896972412" d="M-4.1459420261314625e-15,22.569457191074896A22.569457191074896,22.569457191074896,0,1,1,4.1459420261314625e-15,-22.569457191074896A22.569457191074896,22.569457191074896,0,1,1,-4.1459420261314625e-15,22.569457191074896Z" fill="#1f77b4" stroke="none"/></g><g transform="translate(317.2373513431131,71.0394131715216)" id="Soulac-sur-Mer"><path id="p_409.8462217057096" d="M-4.1459420261314625e-15,22.569457191074896A22.569457191074896,22.569457191074896,0,1,1,4.1459420261314625e-15,-22.569457191074896A22.569457191074896,22.569457191074896,0,1,1,-4.1459420261314625e-15,22.569457191074896Z" fill="#1f77b4" stroke="none"/></g><g transform="translate(569.0669355941338,179.14398630641764)" id="3rd arrondissement of Paris"><path id="p_769.7803790916264" d="M-4.1459420261314625e-15,22.569457191074896A22.569457191074896,22.569457191074896,0,1,1,4.1459420261314625e-15,-22.569457191074896A22.569457191074896,22.569457191074896,0,1,1,-4.1459420261314625e-15,22.569457191074896Z" fill="#1f77b4" stroke="none"/></g><g transform="translate(496.5768994479282,446.3432451332976)" id="Pertuis"><path id="p_964.4896017723007" d="M-4.1459420261314625e-15,22.569457191074896A22.569457191074896,22.569457191074896,0,1,1,4.1459420261314625e-15,-22.569457191074896A22.569457191074896,22.569457191074896,0,1,1,-4.1459420261314625e-15,22.569457191074896Z" fill="#1f77b4" stroke="none"/></g><g transform="translate(490.09359789319683,82.3997007298521)" id="Antony"><path id="p_594.0627558141239" d="M-4.1459420261314625e-15,22.569457191074896A22.569457191074896,22.569457191074896,0,1,1,4.1459420261314625e-15,-22.569457191074896A22.569457191074896,22.569457191074896,0,1,1,-4.1459420261314625e-15,22.569457191074896Z" fill="#1f77b4" stroke="none"/></g><g transform="translate(217.65944020977832,391.8677471591921)" id="Iskrets"><path id="p_631.0966445600453" d="M-4.1459420261314625e-15,22.569457191074896A22.569457191074896,22.569457191074896,0,1,1,4.1459420261314625e-15,-22.569457191074896A22.569457191074896,22.569457191074896,0,1,1,-4.1459420261314625e-15,22.569457191074896Z" fill="#1f77b4" stroke="none"/></g><g transform="translate(217.65944020977832,147.7868471753827)" id="Clichy"><path id="p_387.0157445762359" d="M-4.1459420261314625e-15,22.569457191074896A22.569457191074896,22.569457191074896,0,1,1,4.1459420261314625e-15,-22.569457191074896A22.569457191074896,22.569457191074896,0,1,1,-4.1459420261314625e-15,22.569457191074896Z" fill="#1f77b4" stroke="none"/></g><g transform="translate(192.8815426844163,310.1345926420553)" id="Nicosia"><path id="p_524.5855925175465" d="M-4.1459420261314625e-15,22.569457191074896A22.569457191074896,22.569457191074896,0,1,1,4.1459420261314625e-15,-22.569457191074896A22.569457191074896,22.569457191074896,0,1,1,-4.1459420261314625e-15,22.569457191074896Z" fill="#1f77b4" stroke="none"/></g><g transform="translate(192.88154268441636,229.52000169251954)" id="Chile"><path id="p_443.9710015680108" d="M-4.1459420261314625e-15,22.569457191074896A22.569457191074896,22.569457191074896,0,1,1,4.1459420261314625e-15,-22.569457191074896A22.569457191074896,22.569457191074896,0,1,1,-4.1459420261314625e-15,22.569457191074896Z" fill="#1f77b4" stroke="none"/></g><g transform="translate(565.2207320518778,386.74049819611804)" id="Tours"><path id="p_973.5306874390708" d="M-4.1459420261314625e-15,22.569457191074896A22.569457191074896,22.569457191074896,0,1,1,4.1459420261314625e-15,-22.569457191074896A22.569457191074896,22.569457191074896,0,1,1,-4.1459420261314625e-15,22.569457191074896Z" fill="#1f77b4" stroke="none"/></g><g transform="translate(389.9817918819786,48.969819785164304)" id="17th arrondissement of Paris"><path id="p_460.5210688582178" d="M-4.1459420261314625e-15,22.569457191074896A22.569457191074896,22.569457191074896,0,1,1,4.1459420261314625e-15,-22.569457191074896A22.569457191074896,22.569457191074896,0,1,1,-4.1459420261314625e-15,22.569457191074896Z" fill="#1f77b4" stroke="none"/></g><g transform="translate(389.9817918819786,490.68477454941046)" id="Saint-Brieuc"><path id="p_902.236023622464" d="M-4.1459420261314625e-15,22.569457191074896A22.569457191074896,22.569457191074896,0,1,1,4.1459420261314625e-15,-22.569457191074896A22.569457191074896,22.569457191074896,0,1,1,-4.1459420261314625e-15,22.569457191074896Z" fill="#1f77b4" stroke="none"/></g><g transform="translate(609.6017675005914,203.04067413738466)" id="Kolokani"><path id="p_834.211898829051" d="M-4.1459420261314625e-15,22.569457191074896A22.569457191074896,22.569457191074896,0,1,1,4.1459420261314625e-15,-22.569457191074896A22.569457191074896,22.569457191074896,0,1,1,-4.1459420261314625e-15,22.569457191074896Z" fill="#1f77b4" stroke="none"/></g><g transform="translate(625.4712013863447,270.33995762260224)" id="Évreux"><path id="p_917.3806162000218" d="M-4.1459420261314625e-15,22.569457191074896A22.569457191074896,22.569457191074896,0,1,1,4.1459420261314625e-15,-22.569457191074896A22.569457191074896,22.569457191074896,0,1,1,-4.1459420261314625e-15,22.569457191074896Z" fill="#1f77b4" stroke="none"/></g><g transform="translate(562.1375961364087,132.6025151043265)" id="Le Plessis-Bouchard"><path id="p_716.30956843181" d="M-4.1459420261314625e-15,22.569457191074896A22.569457191074896,22.569457191074896,0,1,1,4.1459420261314625e-15,-22.569457191074896A22.569457191074896,22.569457191074896,0,1,1,-4.1459420261314625e-15,22.569457191074896Z" fill="#1f77b4" stroke="none"/></g><g transform="translate(475.6278049056965,488.4770762531484)" id="Saint-Ouen-sur-Seine"><path id="p_985.6743383499198" d="M-4.1459420261314625e-15,22.569457191074896A22.569457191074896,22.569457191074896,0,1,1,4.1459420261314625e-15,-22.569457191074896A22.569457191074896,22.569457191074896,0,1,1,-4.1459420261314625e-15,22.569457191074896Z" fill="#1f77b4" stroke="none"/></g><g transform="translate(469.1445033509652,40.265869610001374)" id="Dieppe"><path id="p_530.9798301520415" d="M-4.1459420261314625e-15,22.569457191074896A22.569457191074896,22.569457191074896,0,1,1,4.1459420261314625e-15,-22.569457191074896A22.569457191074896,22.569457191074896,0,1,1,-4.1459420261314625e-15,22.569457191074896Z" fill="#1f77b4" stroke="none"/></g><g transform="translate(168.6030291696802,269.8272971672874)" id="Santiago"><path id="p_459.9997835280425" d="M-4.1459420261314625e-15,22.569457191074896A22.569457191074896,22.569457191074896,0,1,1,4.1459420261314625e-15,-22.569457191074896A22.569457191074896,22.569457191074896,0,1,1,-4.1459420261314625e-15,22.569457191074896Z" fill="#1f77b4" stroke="none"/></g><g transform="translate(608.8153178265136,346.68191179034)" id="Créteil"><path id="p_977.0666868079285" d="M-4.1459420261314625e-15,22.569457191074896A22.569457191074896,22.569457191074896,0,1,1,4.1459420261314625e-15,-22.569457191074896A22.569457191074896,22.569457191074896,0,1,1,-4.1459420261314625e-15,22.569457191074896Z" fill="#1f77b4" stroke="none"/></g><g transform="translate(273.6186653915131,486.2655217498851)" id="Boulogne-Billancourt"><path id="p_781.4536443324731" d="M-4.1459420261314625e-15,22.569457191074896A22.569457191074896,22.569457191074896,0,1,1,4.1459420261314625e-15,-22.569457191074896A22.569457191074896,22.569457191074896,0,1,1,-4.1459420261314625e-15,22.569457191074896Z" fill="#1f77b4" stroke="none"/></g><g transform="translate(273.61866539151316,53.38907258468976)" id="Differdange"><path id="p_348.5771951672778" d="M-4.1459420261314625e-15,22.569457191074896A22.569457191074896,22.569457191074896,0,1,1,4.1459420261314625e-15,-22.569457191074896A22.569457191074896,22.569457191074896,0,1,1,-4.1459420261314625e-15,22.569457191074896Z" fill="#1f77b4" stroke="none"/></g><g transform="translate(178.10618925541797,354.8091180231229)" id="İzmir"><path id="p_554.4847644696158" d="M-4.1459420261314625e-15,22.569457191074896A22.569457191074896,22.569457191074896,0,1,1,4.1459420261314625e-15,-22.569457191074896A22.569457191074896,22.569457191074896,0,1,1,-4.1459420261314625e-15,22.569457191074896Z" fill="#1f77b4" stroke="none"/></g><g transform="translate(178.10618925541792,184.84547631145193)" id="Lorient"><path id="p_384.52112275794474" d="M-4.1459420261314625e-15,22.569457191074896A22.569457191074896,22.569457191074896,0,1,1,4.1459420261314625e-15,-22.569457191074896A22.569457191074896,22.569457191074896,0,1,1,-4.1459420261314625e-15,22.569457191074896Z" fill="#1f77b4" stroke="none"/></g><g transform="translate(611.766074999061,393.64378269732293)" id="Neuilly-sur-Seine"><path id="p_1026.9793148874587" d="M-4.1459420261314625e-15,22.569457191074896A22.569457191074896,22.569457191074896,0,1,1,4.1459420261314625e-15,-22.569457191074896A22.569457191074896,22.569457191074896,0,1,1,-4.1459420261314625e-15,22.569457191074896Z" fill="#1f77b4" stroke="none"/></g><g transform="translate(219.38875598868833,438.8904411899713)" id="18th arrondissement of Paris"><path id="p_679.8486543697345" d="M-4.1459420261314625e-15,22.569457191074896A22.569457191074896,22.569457191074896,0,1,1,4.1459420261314625e-15,-22.569457191074896A22.569457191074896,22.569457191074896,0,1,1,-4.1459420261314625e-15,22.569457191074896Z" fill="#1f77b4" stroke="none"/></g><g transform="translate(219.38875598868833,100.76415314460348)" id="Carcassonne"><path id="p_341.7223663243667" d="M-4.1459420261314625e-15,22.569457191074896A22.569457191074896,22.569457191074896,0,1,1,4.1459420261314625e-15,-22.569457191074896A22.569457191074896,22.569457191074896,0,1,1,-4.1459420261314625e-15,22.569457191074896Z" fill="#1f77b4" stroke="none"/></g><g transform="translate(543.5139590203548,449.66540191315266)" id="Brooklyn"><path id="p_1014.7488181245824" d="M-4.1459420261314625e-15,22.569457191074896A22.569457191074896,22.569457191074896,0,1,1,4.1459420261314625e-15,-22.569457191074896A22.569457191074896,22.569457191074896,0,1,1,-4.1459420261314625e-15,22.569457191074896Z" fill="#1f77b4" stroke="none"/></g><g transform="translate(587.9667891821732,434.23587899181797)" id="Sète"><path id="p_1043.7721253650661" d="M-4.1459420261314625e-15,22.569457191074896A22.569457191074896,22.569457191074896,0,1,1,4.1459420261314625e-15,-22.569457191074896A22.569457191074896,22.569457191074896,0,1,1,-4.1459420261314625e-15,22.569457191074896Z" fill="#1f77b4" stroke="none"/></g><g transform="translate(345.55659904775854,33.46090207251183)" id="Villefranche-sur-Saône"><path id="p_400.58695831134526" d="M-4.1459420261314625e-15,22.569457191074896A22.569457191074896,22.569457191074896,0,1,1,4.1459420261314625e-15,-22.569457191074896A22.569457191074896,22.569457191074896,0,1,1,-4.1459420261314625e-15,22.569457191074896Z" fill="#1f77b4" stroke="none"/></g><g transform="translate(345.55659904775854,506.193692262063)" id="France"><path id="p_873.3197485008964" d="M-4.1459420261314625e-15,22.569457191074896A22.569457191074896,22.569457191074896,0,1,1,4.1459420261314625e-15,-22.569457191074896A22.569457191074896,22.569457191074896,0,1,1,-4.1459420261314625e-15,22.569457191074896Z" fill="#1f77b4" stroke="none"/></g><g transform="translate(171.5824896132619,401.4091784303198)" id="La Grand-Combe"><path id="p_594.5611252346566" d="M-4.1459420261314625e-15,22.569457191074896A22.569457191074896,22.569457191074896,0,1,1,4.1459420261314625e-15,-22.569457191074896A22.569457191074896,22.569457191074896,0,1,1,-4.1459420261314625e-15,22.569457191074896Z" fill="#1f77b4" stroke="none"/></g><g transform="translate(171.58248961326194,138.24541590425505)" id="Perpignan"><path id="p_331.3973627085919" d="M-4.1459420261314625e-15,22.569457191074896A22.569457191074896,22.569457191074896,0,1,1,4.1459420261314625e-15,-22.569457191074896A22.569457191074896,22.569457191074896,0,1,1,-4.1459420261314625e-15,22.569457191074896Z" fill="#1f77b4" stroke="none"/></g><g transform="translate(537.0306574656236,79.07754394999705)" id="Marylebone"><path id="p_637.6776586066956" d="M-4.1459420261314625e-15,22.569457191074896A22.569457191074896,22.569457191074896,0,1,1,4.1459420261314625e-15,-22.569457191074896A22.569457191074896,22.569457191074896,0,1,1,-4.1459420261314625e-15,22.569457191074896Z" fill="#1f77b4" stroke="none"/></g></g><g id="labels"><g transform="translate(360.62946692471974,269.8272971672874)"><text text-anchor="middle" dominant-baseline="text-before-edge" transform="translate(0,-5.5)"><tspan x="0" y="0" dy="0" style="font-family: Arial, sans-serif; font-size: 10px; fill: black; font-weight: bold;">Paris</tspan></text></g><g transform="translate(487.5193230228063,269.8272971672874)"><text text-anchor="middle" dominant-baseline="text-before-edge" transform="translate(0,-5.5)"><tspan x="0" y="0" dy="0" style="font-family: Arial, sans-serif; font-size: 10px; fill: black; font-weight: bold;">Nice</tspan></text></g><g transform="translate(470.48377216019946,333.333731501323)"><text text-anchor="middle" dominant-baseline="text-before-edge" transform="translate(0,-5.5)"><tspan x="0" y="0" dy="0" style="font-family: Arial, sans-serif; font-size: 10px; fill: black; font-weight: bold;">Casablanca</tspan></text></g><g transform="translate(470.48377216019946,206.32086283325185)"><text text-anchor="middle" dominant-baseline="text-before-edge" transform="translate(0,-5.5)"><tspan x="0" y="0" dy="0" style="font-family: Arial, sans-serif; font-size: 10px; fill: black; font-weight: bold;">Bordeaux</tspan></text></g><g transform="translate(423.95132277689873,159.8664943690676)"><text text-anchor="middle" dominant-baseline="text-before-edge" transform="translate(0,-5.5)"><tspan x="0" y="0" dy="0" style="font-family: Arial, sans-serif; font-size: 10px; fill: black; font-weight: bold;">Billericay</tspan></text></g><g transform="translate(423.95132277689873,379.7880999655072)"><text text-anchor="middle" dominant-baseline="text-before-edge" transform="translate(0,-5.5)"><tspan x="0" y="0" dy="0" style="font-family: Arial, sans-serif; font-size: 10px; fill: black; font-weight: bold;">Trappes</tspan></text></g><g transform="translate(360.41636855584966,142.9376200076449)"><text text-anchor="middle" dominant-baseline="text-before-edge" transform="translate(0,-5.5)"><tspan x="0" y="0" dy="0" style="font-family: Arial, sans-serif; font-size: 10px; fill: black; font-weight: bold;">Nancy</tspan></text></g><g transform="translate(360.41636855584966,396.7169743269299)"><text text-anchor="middle" dominant-baseline="text-before-edge" transform="translate(0,-5.5)"><tspan x="0" y="0" dy="0" style="font-family: Arial, sans-serif; font-size: 10px; fill: black; font-weight: bold;">Joué-lès-Tours</tspan></text></g><g transform="translate(533.999733028546,223.32086018579017)"><text text-anchor="middle" dominant-baseline="text-before-edge" transform="translate(0,-5.5)"><tspan x="0" y="0" dy="0" style="font-family: Arial, sans-serif; font-size: 10px; fill: black; font-weight: bold;">Valga</tspan></text></g><g transform="translate(523.2676251668497,313.45485468943315)"><text text-anchor="middle" dominant-baseline="text-before-edge" transform="translate(0,-5.5)"><tspan x="0" y="0" dy="0" style="font-family: Arial, sans-serif; font-size: 10px; fill: black; font-weight: bold;">Lille</tspan></text></g><g transform="translate(308.32452475774085,375.0895683048616)"><text text-anchor="middle" dominant-baseline="text-before-edge" transform="translate(0,-5.5)"><tspan x="0" y="0" dy="0" style="font-family: Arial, sans-serif; font-size: 10px; fill: black; font-weight: bold;">Uzeste</tspan></text></g><g transform="translate(308.32452475774085,164.5650260297132)"><text text-anchor="middle" dominant-baseline="text-before-edge" transform="translate(0,-5.5)"><tspan x="0" y="0" dy="0" style="font-family: Arial, sans-serif; font-size: 10px; fill: black; font-weight: bold;">14th arrondissement of Paris</tspan></text></g><g transform="translate(479.59777318446913,150.65902791147107)"><text text-anchor="middle" dominant-baseline="text-before-edge" transform="translate(0,-5.5)"><tspan x="0" y="0" dy="0" style="font-family: Arial, sans-serif; font-size: 10px; fill: black; font-weight: bold;">12th arrondissement of Paris</tspan></text></g><g transform="translate(479.59777318446913,388.9955664231037)"><text text-anchor="middle" dominant-baseline="text-before-edge" transform="translate(0,-5.5)"><tspan x="0" y="0" dy="0" style="font-family: Arial, sans-serif; font-size: 10px; fill: black; font-weight: bold;">9th arrondissement of Paris</tspan></text></g><g transform="translate(271.2295384482969,346.13984848449655)"><text text-anchor="middle" dominant-baseline="text-before-edge" transform="translate(0,-5.5)"><tspan x="0" y="0" dy="0" style="font-family: Arial, sans-serif; font-size: 10px; fill: black; font-weight: bold;">Narbonne</tspan></text></g><g transform="translate(271.2295384482969,193.51474585007824)"><text text-anchor="middle" dominant-baseline="text-before-edge" transform="translate(0,-5.5)"><tspan x="0" y="0" dy="0" style="font-family: Arial, sans-serif; font-size: 10px; fill: black; font-weight: bold;">London</tspan></text></g><g transform="translate(552.5187163880362,276.59704751991615)"><text text-anchor="middle" dominant-baseline="text-before-edge" transform="translate(0,-5.5)"><tspan x="0" y="0" dy="0" style="font-family: Arial, sans-serif; font-size: 10px; fill: black; font-weight: bold;">Calais</tspan></text></g><g transform="translate(403.9838289846695,432.53849402268224)"><text text-anchor="middle" dominant-baseline="text-before-edge" transform="translate(0,-5.5)"><tspan x="0" y="0" dy="0" style="font-family: Arial, sans-serif; font-size: 10px; fill: black; font-weight: bold;">Democratic Republic of the Congo</tspan></text></g><g transform="translate(403.9838289846695,107.11610031189258)"><text text-anchor="middle" dominant-baseline="text-before-edge" transform="translate(0,-5.5)"><tspan x="0" y="0" dy="0" style="font-family: Arial, sans-serif; font-size: 10px; fill: black; font-weight: bold;">Jakarta</tspan></text></g><g transform="translate(519.9717442283035,360.3937666475772)"><text text-anchor="middle" dominant-baseline="text-before-edge" transform="translate(0,-5.5)"><tspan x="0" y="0" dy="0" style="font-family: Arial, sans-serif; font-size: 10px; fill: black; font-weight: bold;">Warsaw</tspan></text></g><g transform="translate(248.4616533666705,304.9603912772273)"><text text-anchor="middle" dominant-baseline="text-before-edge" transform="translate(0,-5.5)"><tspan x="0" y="0" dy="0" style="font-family: Arial, sans-serif; font-size: 10px; fill: black; font-weight: bold;">Sedan</tspan></text></g><g transform="translate(248.4616533666705,234.69420305734747)"><text text-anchor="middle" dominant-baseline="text-before-edge" transform="translate(0,-5.5)"><tspan x="0" y="0" dy="0" style="font-family: Arial, sans-serif; font-size: 10px; fill: black; font-weight: bold;">Grasse</tspan></text></g><g transform="translate(523.3685393038445,167.92877951068078)"><text text-anchor="middle" dominant-baseline="text-before-edge" transform="translate(0,-5.5)"><tspan x="0" y="0" dy="0" style="font-family: Arial, sans-serif; font-size: 10px; fill: black; font-weight: bold;">Marquette-lez-Lille</tspan></text></g><g transform="translate(217.16005619915248,269.8272971672874)"><text text-anchor="middle" dominant-baseline="text-before-edge" transform="translate(0,-5.5)"><tspan x="0" y="0" dy="0" style="font-family: Arial, sans-serif; font-size: 10px; fill: black; font-weight: bold;">Argentina</tspan></text></g><g transform="translate(522.9225014008507,407.3556375545601)"><text text-anchor="middle" dominant-baseline="text-before-edge" transform="translate(0,-5.5)"><tspan x="0" y="0" dy="0" style="font-family: Arial, sans-serif; font-size: 10px; fill: black; font-weight: bold;">Toulouse</tspan></text></g><g transform="translate(310.05384053665085,422.1122623356408)"><text text-anchor="middle" dominant-baseline="text-before-edge" transform="translate(0,-5.5)"><tspan x="0" y="0" dy="0" style="font-family: Arial, sans-serif; font-size: 10px; fill: black; font-weight: bold;">Tacuarembó Department</tspan></text></g><g transform="translate(310.05384053665085,117.542331998934)"><text text-anchor="middle" dominant-baseline="text-before-edge" transform="translate(0,-5.5)"><tspan x="0" y="0" dy="0" style="font-family: Arial, sans-serif; font-size: 10px; fill: black; font-weight: bold;">Saint-Mandé</tspan></text></g><g transform="translate(453.2521712315466,111.67142033273356)"><text text-anchor="middle" dominant-baseline="text-before-edge" transform="translate(0,-5.5)"><tspan x="0" y="0" dy="0" style="font-family: Arial, sans-serif; font-size: 10px; fill: black; font-weight: bold;">Hradec Králové</tspan></text></g><g transform="translate(453.2521712315466,427.98317400184123)"><text text-anchor="middle" dominant-baseline="text-before-edge" transform="translate(0,-5.5)"><tspan x="0" y="0" dy="0" style="font-family: Arial, sans-serif; font-size: 10px; fill: black; font-weight: bold;">Ouidah</tspan></text></g><g transform="translate(264.70583880614095,392.73990889169346)"><text text-anchor="middle" dominant-baseline="text-before-edge" transform="translate(0,-5.5)"><tspan x="0" y="0" dy="0" style="font-family: Arial, sans-serif; font-size: 10px; fill: black; font-weight: bold;">Frederiksberg</tspan></text></g><g transform="translate(264.70583880614095,146.91468544288134)"><text text-anchor="middle" dominant-baseline="text-before-edge" transform="translate(0,-5.5)"><tspan x="0" y="0" dy="0" style="font-family: Arial, sans-serif; font-size: 10px; fill: black; font-weight: bold;">Turin</tspan></text></g><g transform="translate(432.30307668931493,69.53758921288278)"><text text-anchor="middle" dominant-baseline="text-before-edge" transform="translate(0,-5.5)"><tspan x="0" y="0" dy="0" style="font-family: Arial, sans-serif; font-size: 10px; fill: black; font-weight: bold;">Rouen</tspan></text></g><g transform="translate(432.30307668931493,470.11700512169205)"><text text-anchor="middle" dominant-baseline="text-before-edge" transform="translate(0,-5.5)"><tspan x="0" y="0" dy="0" style="font-family: Arial, sans-serif; font-size: 10px; fill: black; font-weight: bold;">Afaahiti</tspan></text></g><g transform="translate(562.2699748793304,339.77862728913516)"><text text-anchor="middle" dominant-baseline="text-before-edge" transform="translate(0,-5.5)"><tspan x="0" y="0" dy="0" style="font-family: Arial, sans-serif; font-size: 10px; fill: black; font-weight: bold;">13th arrondissement of Paris</tspan></text></g><g transform="translate(224.18313985193436,345.2676867519952)"><text text-anchor="middle" dominant-baseline="text-before-edge" transform="translate(0,-5.5)"><tspan x="0" y="0" dy="0" style="font-family: Arial, sans-serif; font-size: 10px; fill: black; font-weight: bold;">Montpellier</tspan></text></g><g transform="translate(224.18313985193436,194.38690758257962)"><text text-anchor="middle" dominant-baseline="text-before-edge" transform="translate(0,-5.5)"><tspan x="0" y="0" dy="0" style="font-family: Arial, sans-serif; font-size: 10px; fill: black; font-weight: bold;">Lisbon</tspan></text></g><g transform="translate(591.5210661005169,302.92082011961816)"><text text-anchor="middle" dominant-baseline="text-before-edge" transform="translate(0,-5.5)"><tspan x="0" y="0" dy="0" style="font-family: Arial, sans-serif; font-size: 10px; fill: black; font-weight: bold;">Enghien-les-Bains</tspan></text></g><g transform="translate(361.6625441773332,86.54833088417416)"><text text-anchor="middle" dominant-baseline="text-before-edge" transform="translate(0,-5.5)"><tspan x="0" y="0" dy="0" style="font-family: Arial, sans-serif; font-size: 10px; fill: black; font-weight: bold;">Courbevoie</tspan></text></g><g transform="translate(361.6625441773332,453.10626345040066)"><text text-anchor="middle" dominant-baseline="text-before-edge" transform="translate(0,-5.5)"><tspan x="0" y="0" dy="0" style="font-family: Arial, sans-serif; font-size: 10px; fill: black; font-weight: bold;">Grenoble</tspan></text></g><g transform="translate(586.4688516738639,244.01618502290023)"><text text-anchor="middle" dominant-baseline="text-before-edge" transform="translate(0,-5.5)"><tspan x="0" y="0" dy="0" style="font-family: Arial, sans-serif; font-size: 10px; fill: black; font-weight: bold;">Kananga</tspan></text></g><g transform="translate(266.4351545850509,439.7626029224727)"><text text-anchor="middle" dominant-baseline="text-before-edge" transform="translate(0,-5.5)"><tspan x="0" y="0" dy="0" style="font-family: Arial, sans-serif; font-size: 10px; fill: black; font-weight: bold;">Algiers</tspan></text></g><g transform="translate(266.4351545850509,99.89199141210213)"><text text-anchor="middle" dominant-baseline="text-before-edge" transform="translate(0,-5.5)"><tspan x="0" y="0" dy="0" style="font-family: Arial, sans-serif; font-size: 10px; fill: black; font-weight: bold;">Marseille</tspan></text></g><g transform="translate(516.4391998461194,121.38730830858964)"><text text-anchor="middle" dominant-baseline="text-before-edge" transform="translate(0,-5.5)"><tspan x="0" y="0" dy="0" style="font-family: Arial, sans-serif; font-size: 10px; fill: black; font-weight: bold;">Six-Fours-les-Plages</tspan></text></g><g transform="translate(317.23735134311306,468.61518116305325)"><text text-anchor="middle" dominant-baseline="text-before-edge" transform="translate(0,-5.5)"><tspan x="0" y="0" dy="0" style="font-family: Arial, sans-serif; font-size: 10px; fill: black; font-weight: bold;">Miami</tspan></text></g><g transform="translate(317.2373513431131,71.0394131715216)"><text text-anchor="middle" dominant-baseline="text-before-edge" transform="translate(0,-5.5)"><tspan x="0" y="0" dy="0" style="font-family: Arial, sans-serif; font-size: 10px; fill: black; font-weight: bold;">Soulac-sur-Mer</tspan></text></g><g transform="translate(569.0669355941338,179.14398630641764)"><text text-anchor="middle" dominant-baseline="text-before-edge" transform="translate(0,-5.5)"><tspan x="0" y="0" dy="0" style="font-family: Arial, sans-serif; font-size: 10px; fill: black; font-weight: bold;">3rd arrondissement of Paris</tspan></text></g><g transform="translate(496.5768994479282,446.3432451332976)"><text text-anchor="middle" dominant-baseline="text-before-edge" transform="translate(0,-5.5)"><tspan x="0" y="0" dy="0" style="font-family: Arial, sans-serif; font-size: 10px; fill: black; font-weight: bold;">Pertuis</tspan></text></g><g transform="translate(490.09359789319683,82.3997007298521)"><text text-anchor="middle" dominant-baseline="text-before-edge" transform="translate(0,-5.5)"><tspan x="0" y="0" dy="0" style="font-family: Arial, sans-serif; font-size: 10px; fill: black; font-weight: bold;">Antony</tspan></text></g><g transform="translate(217.65944020977832,391.8677471591921)"><text text-anchor="middle" dominant-baseline="text-before-edge" transform="translate(0,-5.5)"><tspan x="0" y="0" dy="0" style="font-family: Arial, sans-serif; font-size: 10px; fill: black; font-weight: bold;">Iskrets</tspan></text></g><g transform="translate(217.65944020977832,147.7868471753827)"><text text-anchor="middle" dominant-baseline="text-before-edge" transform="translate(0,-5.5)"><tspan x="0" y="0" dy="0" style="font-family: Arial, sans-serif; font-size: 10px; fill: black; font-weight: bold;">Clichy</tspan></text></g><g transform="translate(192.8815426844163,310.1345926420553)"><text text-anchor="middle" dominant-baseline="text-before-edge" transform="translate(0,-5.5)"><tspan x="0" y="0" dy="0" style="font-family: Arial, sans-serif; font-size: 10px; fill: black; font-weight: bold;">Nicosia</tspan></text></g><g transform="translate(192.88154268441636,229.52000169251954)"><text text-anchor="middle" dominant-baseline="text-before-edge" transform="translate(0,-5.5)"><tspan x="0" y="0" dy="0" style="font-family: Arial, sans-serif; font-size: 10px; fill: black; font-weight: bold;">Chile</tspan></text></g><g transform="translate(565.2207320518778,386.74049819611804)"><text text-anchor="middle" dominant-baseline="text-before-edge" transform="translate(0,-5.5)"><tspan x="0" y="0" dy="0" style="font-family: Arial, sans-serif; font-size: 10px; fill: black; font-weight: bold;">Tours</tspan></text></g><g transform="translate(389.9817918819786,48.969819785164304)"><text text-anchor="middle" dominant-baseline="text-before-edge" transform="translate(0,-5.5)"><tspan x="0" y="0" dy="0" style="font-family: Arial, sans-serif; font-size: 10px; fill: black; font-weight: bold;">17th arrondissement of Paris</tspan></text></g><g transform="translate(389.9817918819786,490.68477454941046)"><text text-anchor="middle" dominant-baseline="text-before-edge" transform="translate(0,-5.5)"><tspan x="0" y="0" dy="0" style="font-family: Arial, sans-serif; font-size: 10px; fill: black; font-weight: bold;">Saint-Brieuc</tspan></text></g><g transform="translate(609.6017675005914,203.04067413738466)"><text text-anchor="middle" dominant-baseline="text-before-edge" transform="translate(0,-5.5)"><tspan x="0" y="0" dy="0" style="font-family: Arial, sans-serif; font-size: 10px; fill: black; font-weight: bold;">Kolokani</tspan></text></g><g transform="translate(625.4712013863447,270.33995762260224)"><text text-anchor="middle" dominant-baseline="text-before-edge" transform="translate(0,-5.5)"><tspan x="0" y="0" dy="0" style="font-family: Arial, sans-serif; font-size: 10px; fill: black; font-weight: bold;">Évreux</tspan></text></g><g transform="translate(562.1375961364087,132.6025151043265)"><text text-anchor="middle" dominant-baseline="text-before-edge" transform="translate(0,-5.5)"><tspan x="0" y="0" dy="0" style="font-family: Arial, sans-serif; font-size: 10px; fill: black; font-weight: bold;">Le Plessis-Bouchard</tspan></text></g><g transform="translate(475.6278049056965,488.4770762531484)"><text text-anchor="middle" dominant-baseline="text-before-edge" transform="translate(0,-5.5)"><tspan x="0" y="0" dy="0" style="font-family: Arial, sans-serif; font-size: 10px; fill: black; font-weight: bold;">Saint-Ouen-sur-Seine</tspan></text></g><g transform="translate(469.1445033509652,40.265869610001374)"><text text-anchor="middle" dominant-baseline="text-before-edge" transform="translate(0,-5.5)"><tspan x="0" y="0" dy="0" style="font-family: Arial, sans-serif; font-size: 10px; fill: black; font-weight: bold;">Dieppe</tspan></text></g><g transform="translate(168.6030291696802,269.8272971672874)"><text text-anchor="middle" dominant-baseline="text-before-edge" transform="translate(0,-5.5)"><tspan x="0" y="0" dy="0" style="font-family: Arial, sans-serif; font-size: 10px; fill: black; font-weight: bold;">Santiago</tspan></text></g><g transform="translate(608.8153178265136,346.68191179034)"><text text-anchor="middle" dominant-baseline="text-before-edge" transform="translate(0,-5.5)"><tspan x="0" y="0" dy="0" style="font-family: Arial, sans-serif; font-size: 10px; fill: black; font-weight: bold;">Créteil</tspan></text></g><g transform="translate(273.6186653915131,486.2655217498851)"><text text-anchor="middle" dominant-baseline="text-before-edge" transform="translate(0,-5.5)"><tspan x="0" y="0" dy="0" style="font-family: Arial, sans-serif; font-size: 10px; fill: black; font-weight: bold;">Boulogne-Billancourt</tspan></text></g><g transform="translate(273.61866539151316,53.38907258468976)"><text text-anchor="middle" dominant-baseline="text-before-edge" transform="translate(0,-5.5)"><tspan x="0" y="0" dy="0" style="font-family: Arial, sans-serif; font-size: 10px; fill: black; font-weight: bold;">Differdange</tspan></text></g><g transform="translate(178.10618925541797,354.8091180231229)"><text text-anchor="middle" dominant-baseline="text-before-edge" transform="translate(0,-5.5)"><tspan x="0" y="0" dy="0" style="font-family: Arial, sans-serif; font-size: 10px; fill: black; font-weight: bold;">İzmir</tspan></text></g><g transform="translate(178.10618925541792,184.84547631145193)"><text text-anchor="middle" dominant-baseline="text-before-edge" transform="translate(0,-5.5)"><tspan x="0" y="0" dy="0" style="font-family: Arial, sans-serif; font-size: 10px; fill: black; font-weight: bold;">Lorient</tspan></text></g><g transform="translate(611.766074999061,393.64378269732293)"><text text-anchor="middle" dominant-baseline="text-before-edge" transform="translate(0,-5.5)"><tspan x="0" y="0" dy="0" style="font-family: Arial, sans-serif; font-size: 10px; fill: black; font-weight: bold;">Neuilly-sur-Seine</tspan></text></g><g transform="translate(219.38875598868833,438.8904411899713)"><text text-anchor="middle" dominant-baseline="text-before-edge" transform="translate(0,-5.5)"><tspan x="0" y="0" dy="0" style="font-family: Arial, sans-serif; font-size: 10px; fill: black; font-weight: bold;">18th arrondissement of Paris</tspan></text></g><g transform="translate(219.38875598868833,100.76415314460348)"><text text-anchor="middle" dominant-baseline="text-before-edge" transform="translate(0,-5.5)"><tspan x="0" y="0" dy="0" style="font-family: Arial, sans-serif; font-size: 10px; fill: black; font-weight: bold;">Carcassonne</tspan></text></g><g transform="translate(543.5139590203548,449.66540191315266)"><text text-anchor="middle" dominant-baseline="text-before-edge" transform="translate(0,-5.5)"><tspan x="0" y="0" dy="0" style="font-family: Arial, sans-serif; font-size: 10px; fill: black; font-weight: bold;">Brooklyn</tspan></text></g><g transform="translate(587.9667891821732,434.23587899181797)"><text text-anchor="middle" dominant-baseline="text-before-edge" transform="translate(0,-5.5)"><tspan x="0" y="0" dy="0" style="font-family: Arial, sans-serif; font-size: 10px; fill: black; font-weight: bold;">Sète</tspan></text></g><g transform="translate(345.55659904775854,33.46090207251183)"><text text-anchor="middle" dominant-baseline="text-before-edge" transform="translate(0,-5.5)"><tspan x="0" y="0" dy="0" style="font-family: Arial, sans-serif; font-size: 10px; fill: black; font-weight: bold;">Villefranche-sur-Saône</tspan></text></g><g transform="translate(345.55659904775854,506.193692262063)"><text text-anchor="middle" dominant-baseline="text-before-edge" transform="translate(0,-5.5)"><tspan x="0" y="0" dy="0" style="font-family: Arial, sans-serif; font-size: 10px; fill: black; font-weight: bold;">France</tspan></text></g><g transform="translate(171.5824896132619,401.4091784303198)"><text text-anchor="middle" dominant-baseline="text-before-edge" transform="translate(0,-5.5)"><tspan x="0" y="0" dy="0" style="font-family: Arial, sans-serif; font-size: 10px; fill: black; font-weight: bold;">La Grand-Combe</tspan></text></g><g transform="translate(171.58248961326194,138.24541590425505)"><text text-anchor="middle" dominant-baseline="text-before-edge" transform="translate(0,-5.5)"><tspan x="0" y="0" dy="0" style="font-family: Arial, sans-serif; font-size: 10px; fill: black; font-weight: bold;">Perpignan</tspan></text></g><g transform="translate(537.0306574656236,79.07754394999705)"><text text-anchor="middle" dominant-baseline="text-before-edge" transform="translate(0,-5.5)"><tspan x="0" y="0" dy="0" style="font-family: Arial, sans-serif; font-size: 10px; fill: black; font-weight: bold;">Marylebone</tspan></text></g></g></g></svg>